<svg xmlns="http://www.w3.org/2000/svg" version="1.1" xmlns:xlink="http://www.w3.org/1999/xlink" xmlns:svgjs="http://svgjs.com/svgjs" width="1920" height="1080" preserveAspectRatio="none" viewBox="0 0 1920 1080"><g mask="url(&quot;#SvgjsMask1022&quot;)" fill="none"><rect width="1920" height="1080" x="0" y="0" fill="rgba(26, 26, 33, 1)"></rect><path d="M0,509.223C120.847,516.204,243.407,600.411,353.447,549.975C464.422,499.11,510.125,367.071,556.511,254.15C601.468,144.708,632.755,28.556,615.731,-88.529C598.723,-205.508,545.28,-316.512,461.424,-399.827C380.797,-479.934,268.541,-511.165,159.184,-542.131C50.801,-572.821,-58.507,-595.403,-169.889,-578.59C-293.04,-560.001,-447.485,-549.409,-509.215,-441.237C-572.912,-329.619,-440.716,-193.161,-462.152,-66.447C-484.524,65.801,-663.084,158.314,-632.743,288.964C-603.752,413.805,-449.184,468.47,-328.145,510.604C-222.707,547.307,-111.458,502.785,0,509.223" fill="#16161c"></path><path d="M1920 1901.42C2071.465 1894.066 2151.391 1719.885 2273.062 1629.376 2384.208 1546.6970000000001 2540.9790000000003 1515.721 2604.194 1392.461 2668.006 1268.037 2616.931 1120.814 2605.353 981.461 2592.977 832.4970000000001 2610.433 676.4159999999999 2534.0299999999997 547.94 2450.849 408.06600000000003 2327.462 262.126 2165.909 242.51099999999997 2004.329 222.89200000000005 1883.696 384.096 1735.297 450.96000000000004 1612.191 506.428 1475.673 520.099 1368.255 601.9100000000001 1242.557 697.643 1083.4650000000001 800.352 1069.857 957.768 1056.191 1115.86 1214.143 1230.2069999999999 1302.551 1361.979 1375.982 1471.4270000000001 1444.938 1578.051 1544.193 1664.766 1657.981 1764.1779999999999 1769.08 1908.748 1920 1901.42" fill="#1e1e26"></path></g><defs><mask id="SvgjsMask1022"><rect width="1920" height="1080" fill="#ffffff"></rect></mask></defs></svg>